Coordinates																							
version=1																							
nRows=34																							
nColumns=24																							
inDegrees=yes																							
																							
"Units are S.I. units (second, meters, Newtons, ...)"																							
"If the header above contains a line with 'inDegrees', this indicates whether rotational values are in degrees (yes) or radians (no)."																							
																							
endheader																							
time	pelvis_tilt	pelvis_list	pelvis_rotation	pelvis_tx	pelvis_ty	pelvis_tz	hip_flexion_r	hip_adduction_r	hip_rotation_r	knee_flex_r	ankle_angle_r	subtalar_angle_r	mtp_angle_r	hip_flexion_l	hip_adduction_l	hip_rotation_l	knee_flex_l	ankle_angle_l	subtalar_angle_l	mtp_angle_l	lumbar_extension	lumbar_bending	lumbar_rotation
90	-0.9468692	-0.92027765	-1.6254836	1.31054497	0.98083141	-0.5586052	-8.60509406	5.99783373	7.40406038	-17.98641931	25.25089616	-26.9087639	0	17.23915282	-4.12934227	-1.50760198	-70.09014894	21.37697989	-8.87806219	0	-31.67675348	1.14358216	4.33991702
90.01	-0.82722748	-0.68665853	-1.5723295	1.30964361	0.98068386	-0.55813752	-9.4784797	5.68447344	7.19147585	-17.10495084	25.22897608	-26.59964623	0	18.30264057	-4.01406	-1.60303614	-69.85252257	22.15432182	-8.41648536	0	-31.85341852	0.8959048	4.4342402
90.02	-0.76232468	-0.49812818	-1.69379519	1.30832748	0.98036286	-0.55719055	-10.19125067	5.42694205	7.18524276	-16.39164155	25.23978781	-26.33321444	0	19.43764941	-4.01401512	-1.85570696	-69.53571545	22.77965438	-8.04719647	0	-32.02223313	0.5807877	4.71002422
90.03	-0.70284134	-0.30063483	-1.62819712	1.30740804	0.97988628	-0.55694221	-10.96058448	5.14595328	6.89400218	-15.60708837	25.3065139	-25.9099178	0	20.50293169	-3.85935314	-1.87400291	-69.08749077	23.49111495	-7.77326194	0	-32.13146899	0.38407606	4.77293141
90.04	-0.72817014	-0.12131899	-1.57720155	1.30646358	0.97915456	-0.55670087	-11.58903136	4.89555326	6.63175582	-14.91759777	25.33163821	-25.53703756	0	21.57582744	-3.74306225	-1.94156336	-68.44887977	24.2023785	-7.54027491	0	-32.15383488	0.19970927	4.86239612
90.05	-0.71508907	-0.0157365	-1.43751692	1.30572618	0.97850659	-0.55678804	-12.32463966	4.72668386	6.27548475	-14.12684445	25.30172124	-25.18075367	0	22.6123453	-3.61977153	-1.82591979	-67.73887896	24.68319692	-7.58451154	0	-32.22746966	0.12966018	4.87704911
90.06	-0.72425538	0.09914746	-1.47677151	1.30479631	0.97779561	-0.55654972	-12.9593782	4.49141659	5.77479008	-13.47156601	25.70199536	-24.08566194	0	23.58351922	-3.61513648	-2.00747346	-66.98066338	25.26701709	-7.56424886	0	-32.29304403	-0.03433653	5.00431934
90.07	-0.75800228	0.2107167	-1.50290779	1.30395332	0.97698768	-0.5564303	-13.60792485	4.28337525	5.50785145	-12.74038262	25.63568988	-23.76277636	0	24.53138048	-3.55319349	-2.11326872	-66.12483112	25.68318039	-7.78966965	0	-32.33350582	-0.19845365	5.11406356
90.08	-0.81291447	0.30479919	-1.58264984	1.30310704	0.9760259	-0.55631081	-14.17781902	4.07141257	5.1397624	-12.13325157	25.9425505	-22.84701371	0	25.43791057	-3.48994937	-2.19871116	-65.21794276	26.03785119	-8.28034706	0	-32.364895	-0.38176047	5.20946753
90.09	-0.87042035	0.41070652	-1.65983012	1.30235766	0.97499793	-0.55624216	-14.77703215	3.84958838	4.81354322	-11.46972017	26.08153479	-22.22512462	0	26.28084165	-3.41484017	-2.27766511	-64.27500013	26.46152759	-8.58995321	0	-32.38682777	-0.57873468	5.28811256
90.1	-0.9168072	0.47946556	-1.78412657	1.30164923	0.97393451	-0.55609417	-15.41376715	3.66836156	4.66808865	-10.75785551	26.13771805	-21.70549216	0	27.04592636	-3.4025346	-2.37855339	-63.25533457	26.76874592	-9.06735544	0	-32.43616002	-0.77931532	5.42037848
90.11	-1.00170433	0.56361133	-1.8555241	1.30096352	0.97268092	-0.55618153	-15.97083337	3.476408	4.3752715	-10.12654052	26.28761242	-21.05539538	0	27.79472906	-3.31676278	-2.37696337	-62.26611011	27.13483576	-9.34253577	0	-32.44423722	-0.96285083	5.44345759
90.12	-1.09917312	0.60633386	-1.91820044	1.30034101	0.97131362	-0.55632549	-16.57337172	3.31650766	4.00105713	-9.39523916	26.42387266	-20.39607799	0	28.51438623	-3.24911209	-2.25168751	-61.36036949	27.554554	-9.34944244	0	-32.4332548	-1.1027582	5.47219577
90.13	-1.15208228	0.8121852	-1.984484	1.2999428	0.96998894	-0.55665384	-17.20582664	2.98872391	3.65610625	-8.72212579	26.51541755	-19.84901528	0	29.08002661	-2.96196565	-2.18979354	-60.32193506	27.80372098	-9.75878748	0	-32.45290268	-1.40641623	5.3983989
90.14	-1.21913934	0.93955784	-2.09981619	1.29990987	0.96849351	-0.55723017	-17.87018802	2.70630443	3.33194753	-7.99812201	26.627237	-19.18317118	0	29.57416595	-2.74962487	-2.09946467	-59.28562174	28.13640429	-9.96911176	0	-32.42275016	-1.60859809	5.39905243
90.15	-1.36084589	0.95175579	-2.12334464	1.2991784	0.96678094	-0.5573691	-18.36203191	2.6395525	3.20942001	-7.40436606	26.6140493	-19.0639417	0	30.18627617	-2.64289255	-1.82486884	-58.34908641	28.45064015	-10.0089283	0	-32.39185117	-1.74358907	5.47376046
90.16	-1.44628611	1.03776773	-2.17706477	1.29896075	0.96510036	-0.55797	-18.95366783	2.43674781	2.81460872	-6.76960888	26.80853177	-18.44740247	0	30.63683991	-2.4023337	-1.55183005	-57.50956056	28.55750514	-10.24539264	0	-32.36964519	-1.92592046	5.41567216
90.17	-1.51002624	1.11004977	-2.23488976	1.2988315	0.96343645	-0.55862267	-19.55425396	2.25371385	2.59955493	-6.19758512	26.77149301	-18.17611882	0	30.98021933	-2.16962491	-1.25518578	-56.69170795	28.79233147	-10.24316463	0	-32.37191694	-2.09016448	5.46067392
90.18	-1.56578723	1.2273682	-2.32781318	1.29886074	0.96168817	-0.55941281	-20.18294949	1.99584781	2.30361794	-5.59436604	26.93624207	-17.57130749	0	31.25140075	-1.86579335	-0.9644853	-55.96103645	29.0084041	-10.33611634	0	-32.37456252	-2.31691764	5.42613502
90.19	-1.64161245	1.27260183	-2.44860201	1.29895897	0.95976891	-0.56017492	-20.78771293	1.80405184	2.00916283	-5.00992832	27.07421343	-16.99503119	0	31.48799365	-1.65956422	-0.69432531	-55.36098418	29.24090001	-10.31006548	0	-32.33366062	-2.48045812	5.49082727
90.2	-1.65777352	1.35297736	-2.59771208	1.29928556	0.95788468	-0.56110631	-21.44729672	1.56604886	1.90502702	-4.44964411	27.04835657	-16.84901503	0	31.56643888	-1.412567	-0.48819131	-54.82676689	29.4476425	-10.3052308	0	-32.34367734	-2.67457293	5.54588397
90.21	-1.67296056	1.44735579	-2.76103095	1.29976553	0.95595138	-0.56212096	-22.09571226	1.28245987	1.3699173	-3.94178287	27.30709229	-15.8992593	0	31.56140542	-1.1460048	-0.32944912	-54.39006549	29.53488072	-10.37954799	0	-32.34007559	-2.89910336	5.55818205
90.22	-1.76808659	1.42759135	-2.96310074	1.30029086	0.95369006	-0.56312653	-22.66119269	1.11657659	1.14295893	-3.44086173	27.36421307	-15.40689479	0	31.61018307	-1.032559	-0.23291934	-54.13324288	29.6198597	-10.34159872	0	-32.22479559	-3.00766183	5.70845341
90.23	-1.78955875	1.43888218	-3.21070244	1.30101203	0.95154578	-0.56421287	-23.2827066	0.88636954	0.93546469	-3.01244218	27.46522397	-14.90567879	0	31.4612822	-0.88780326	-0.2267968	-53.89862133	29.58874996	-10.48008343	0	-32.17252882	-3.17079862	5.79568925
90.24	-1.79379021	1.4601517	-3.4868896	1.30196899	0.94937252	-0.56543795	-23.90556325	0.61615367	0.62974815	-2.63827109	27.59152039	-14.21640714	0	31.16762815	-0.73044	-0.31515577	-53.65991104	29.505608	-10.59591979	0	-32.11884843	-3.33497171	5.94077396
90.25	-1.81780972	1.4137763	-3.81752077	1.30311474	0.9471292	-0.56650868	-24.47286872	0.39367516	0.53003324	-2.32796467	27.54063915	-13.89446821	0	30.82602548	-0.68161024	-0.45118834	-53.54457458	29.32787263	-10.62830578	0	-32.00909411	-3.48289682	6.14721299
90.26	-1.85674022	1.36497659	-4.16811196	1.30435378	0.94487689	-0.56786037	-24.97124341	0.13967558	0.27551809	-2.13917946	27.53907962	-13.18042529	0	30.53666765	-0.56381441	-0.34732244	-53.75510896	28.43995254	-10.39382081	0	-31.88468932	-3.57978143	6.33677407
90.27	-1.89313023	1.28277449	-4.51634802	1.3058331	0.94272765	-0.56908805	-25.42376898	-0.08357681	0.12457192	-2.02539357	27.55737295	-12.60964621	0	30.14726033	-0.46145228	-0.23115884	-54.03971675	28.32665558	-11.07241331	0	-31.73057713	-3.68227392	6.53027387
90.28	-1.98210515	1.16150385	-4.93499917	1.30721082	0.94044956	-0.57056204	-25.76375598	-0.30379284	0.13976645	-2.06887571	27.59755893	-12.18790411	0	29.81040358	-0.38525753	-0.08643866	-54.55939925	29.38259981	-12.2654661	0	-31.52927526	-3.71356205	6.82003594
90.29	-2.00818595	1.06755815	-5.33985975	1.30881884	0.9385646	-0.57206157	-26.1168807	-0.56932084	0.02158006	-2.18678765	27.52796775	-11.68998499	0	29.33965557	-0.23433308	0.07911915	-54.95876174	30.00116994	-13.45596907	0	-31.38909052	-3.8113588	7.0026472
90.3	-2.09460309	0.84635507	-5.72372577	1.31036019	0.936726	-0.57367031	-26.31098655	-0.69863677	0.14009399	-2.4830412	27.33639728	-11.43289701	0	29.01324605	-0.17092321	0.28686161	-55.43008379	30.73647175	-14.03823995	0	-31.22317021	-3.75428674	7.19459254
90.31	-2.14003723	0.74411351	-6.12682843	1.31198531	0.93528307	-0.57547374	-26.4650208	-0.98329968	0.30400911	-2.9545541	27.16360821	-11.17307912	0	28.59547913	0.02047313	0.3386839	-55.72063515	31.05203386	-14.90797199	0	-31.11167626	-3.79990064	7.40706965
90.32	-2.18248106	0.62227186	-6.47164131	1.31365356	0.93417276	-0.5773961	-26.53059033	-1.21382049	0.45258279	-3.53519333	26.81310788	-11.16477216	0	28.1598426	0.20307659	0.45631431	-55.95926362	31.40779821	-15.73300288	0	-31.03907723	-3.81633281	7.54554687
90.33	-2.24187934	0.52919996	-6.79753252	1.31527083	0.93348496	-0.57942909	-26.45543052	-1.46354397	0.72140402	-4.33429729	26.33174636	-11.37088197	0	27.74538988	0.51506451	0.73226006	-56.08864744	31.31925952	-16.946733	0	-30.97521788	-3.85658602	7.64114989
